<svg width="16" height="16" viewBox="0 0 16 16" fill="none" xmlns="http://www.w3.org/2000/svg">
<g clip-path="url(#clip0)">
<rect width="16" height="16" fill="#F3603C"/>
<path fill-rule="evenodd" clip-rule="evenodd" d="M4.85973 9.32794C5.776 9.32794 6.5189 10.0899 6.5189 11.03C6.5189 11.9695 5.776 12.7321 4.85973 12.7321C3.94286 12.7321 3.19995 11.9695 3.19995 11.03C3.19995 10.0899 3.94286 9.32794 4.85973 9.32794V9.32794ZM4.85973 3.2C5.776 3.2 6.51831 3.96257 6.51831 4.90207C6.51831 5.84217 5.7754 6.60415 4.85913 6.60415C3.94286 6.60415 3.19995 5.84217 3.19995 4.90207C3.19995 3.96257 3.94286 3.2 4.85973 3.2ZM10.834 3.2C11.7508 3.2 12.4937 3.96257 12.4937 4.90207C12.4937 5.84217 11.7508 6.60415 10.834 6.60415C9.91769 6.60415 9.17478 5.84217 9.17478 4.90207C9.17478 3.96257 9.91769 3.2 10.834 3.2Z" fill="white"/>
<path opacity="0.5" d="M10.8338 12.8C11.7505 12.8 12.4936 12.038 12.4936 11.0979C12.4936 10.1579 11.7505 9.39585 10.8338 9.39585C9.91718 9.39585 9.17407 10.1579 9.17407 11.0979C9.17407 12.038 9.91718 12.8 10.8338 12.8Z" fill="white"/>
</g>
<defs>
<clipPath id="clip0">
<rect width="16" height="16" fill="white"/>
</clipPath>
</defs>
</svg>
