<svg width="14" height="23" viewBox="0 0 14 23" fill="none" xmlns="http://www.w3.org/2000/svg">
<path fill-rule="evenodd" clip-rule="evenodd" d="M5 2.75C5 3.99264 3.99264 5 2.75 5C1.50736 5 0.5 3.99264 0.5 2.75C0.5 1.50736 1.50736 0.5 2.75 0.5C3.99264 0.5 5 1.50736 5 2.75ZM5 20.75C5 21.9926 3.99264 23 2.75 23C1.50736 23 0.5 21.9926 0.5 20.75C0.5 19.5074 1.50736 18.5 2.75 18.5C3.99264 18.5 5 19.5074 5 20.75ZM11.75 5C12.9926 5 14 3.99264 14 2.75C14 1.50736 12.9926 0.5 11.75 0.5C10.5074 0.5 9.5 1.50736 9.5 2.75C9.5 3.99264 10.5074 5 11.75 5ZM14 20.75C14 21.9926 12.9926 23 11.75 23C10.5074 23 9.5 21.9926 9.5 20.75C9.5 19.5074 10.5074 18.5 11.75 18.5C12.9926 18.5 14 19.5074 14 20.75ZM11.75 14C12.9926 14 14 12.9926 14 11.75C14 10.5074 12.9926 9.5 11.75 9.5C10.5074 9.5 9.5 10.5074 9.5 11.75C9.5 12.9926 10.5074 14 11.75 14ZM5 11.75C5 12.9926 3.99264 14 2.75 14C1.50736 14 0.5 12.9926 0.5 11.75C0.5 10.5074 1.50736 9.5 2.75 9.5C3.99264 9.5 5 10.5074 5 11.75Z" fill="#D2D3DB"/>
</svg>
