<svg width="16" height="16" viewBox="0 0 16 16" fill="none" xmlns="http://www.w3.org/2000/svg">
<g clip-path="url(#clip0)">
<rect width="16" height="16" fill="#2ACFCF"/>
<path d="M10.9641 5.7105C10.9331 5.66955 10.8249 5.5922 10.6392 5.47845C10.4536 5.36471 10.2215 5.24641 9.94309 5.12265C9.66464 4.9989 9.36025 4.89061 9.03039 4.79779C8.70834 4.70609 8.37518 4.65924 8.04033 4.65856C7.13263 4.65856 6.67901 4.96295 6.67901 5.57127C6.67901 5.75691 6.72769 5.9116 6.82597 6.03536C6.92379 6.15912 7.06802 6.27013 7.25912 6.36796C7.44976 6.46578 7.68954 6.55632 7.978 6.63867L8.61771 6.81748L8.98398 6.91713C9.50995 7.06136 9.98404 7.21879 10.4072 7.38895C10.8299 7.55912 11.1884 7.77069 11.4823 8.02321C11.7755 8.27493 12.0082 8.58955 12.163 8.94365C12.3222 9.30445 12.4028 9.7376 12.4028 10.2431C12.4028 10.8619 12.2867 11.3851 12.0547 11.8133C11.8227 12.2409 11.5155 12.5867 11.1343 12.8497C10.7521 13.1127 10.3144 13.3033 9.81934 13.4221C9.32431 13.5404 8.81381 13.6 8.28785 13.6C7.44985 13.5952 6.61668 13.4729 5.81271 13.2365C5.4105 13.1182 5.02103 12.9762 4.64475 12.8111C4.27983 12.6525 3.93016 12.4609 3.6001 12.2387L4.71391 10.0265C4.75486 10.0779 4.88908 10.1762 5.11612 10.3204C5.3427 10.4647 5.62389 10.6094 5.95921 10.7536C6.29409 10.8978 6.66809 11.0266 7.08076 11.1403C7.49298 11.2541 7.91066 11.3105 8.3338 11.3105C9.23104 11.3105 9.67966 11.0375 9.67966 10.4906C9.67966 10.2845 9.61232 10.1143 9.47855 9.98011C9.34433 9.84589 9.15869 9.72486 8.92165 9.61658C8.69926 9.51702 8.47068 9.43191 8.23734 9.36178L7.46295 9.13656L7.01888 9.00553C6.51339 8.85083 6.07524 8.68339 5.70397 8.50276C5.33269 8.32213 5.02603 8.11329 4.78352 7.87624C4.54551 7.64562 4.36073 7.36581 4.24209 7.05635C4.12333 6.74696 4.06419 6.38616 4.06419 5.97348C4.06419 5.39565 4.17247 4.8856 4.38905 4.44199C4.59784 4.00842 4.89877 3.62566 5.27082 3.32044C5.65324 3.01023 6.09178 2.77652 6.56253 2.63204C7.0521 2.47735 7.57033 2.4 8.11723 2.4C8.49851 2.4 8.87524 2.4364 9.24651 2.50829C9.61778 2.58063 9.97358 2.67345 10.3139 2.78674C10.6542 2.90049 10.9714 3.02925 11.2648 3.17348C11.5592 3.31771 11.8299 3.4624 12.0774 3.60663L10.9641 5.7105Z" fill="white"/>
</g>
<defs>
<clipPath id="clip0">
<rect width="16" height="16" fill="white"/>
</clipPath>
</defs>
</svg>
