<svg width="16" height="16" viewBox="0 0 16 16" fill="none" xmlns="http://www.w3.org/2000/svg">
<rect width="16" height="16" fill="#3A4764"/>
<path d="M4.3999 3.8C4.3999 3.0268 5.04461 2.4 5.8399 2.4H10.1599C10.9552 2.4 11.5999 3.0268 11.5999 3.8V12.2C11.5999 12.9732 10.9552 13.6 10.1599 13.6H5.8399C5.04461 13.6 4.3999 12.9732 4.3999 12.2V3.8Z" fill="#232C43"/>
<path d="M5.6001 7.2C5.6001 6.75817 5.95827 6.4 6.4001 6.4C6.84193 6.4 7.2001 6.75817 7.2001 7.2C7.2001 7.64183 6.84193 8 6.4001 8C5.95827 8 5.6001 7.64183 5.6001 7.2Z" fill="#EAE3DC"/>
<path d="M8.8001 7.2C8.8001 6.75817 9.15827 6.4 9.6001 6.4C10.0419 6.4 10.4001 6.75817 10.4001 7.2C10.4001 7.64183 10.0419 8 9.6001 8C9.15827 8 8.8001 7.64183 8.8001 7.2Z" fill="#EAE3DC"/>
<path d="M5.6001 9.6C5.6001 9.15817 5.95827 8.8 6.4001 8.8C6.84193 8.8 7.2001 9.15817 7.2001 9.6C7.2001 10.0418 6.84193 10.4 6.4001 10.4C5.95827 10.4 5.6001 10.0418 5.6001 9.6Z" fill="#EAE3DC"/>
<path d="M5.6001 12C5.6001 11.5582 5.95827 11.2 6.4001 11.2C6.84193 11.2 7.2001 11.5582 7.2001 12C7.2001 12.4418 6.84193 12.8 6.4001 12.8C5.95827 12.8 5.6001 12.4418 5.6001 12Z" fill="#EAE3DC"/>
<path d="M8.80005 9.6C8.80005 9.15817 9.15822 8.8 9.60005 8.8C10.0419 8.8 10.4 9.15817 10.4 9.6V12C10.4 12.4418 10.0419 12.8 9.60005 12.8C9.15822 12.8 8.80005 12.4418 8.80005 12V9.6Z" fill="#D03F2F"/>
<path d="M5.6001 4C5.6001 3.55817 5.95827 3.2 6.4001 3.2H9.6001C10.0419 3.2 10.4001 3.55817 10.4001 4V4.8C10.4001 5.24183 10.0419 5.6 9.6001 5.6H6.4001C5.95827 5.6 5.6001 5.24183 5.6001 4.8V4Z" fill="#182034"/>
</svg>
