<svg width="269" height="198" viewBox="29 0 240 181" fill="none" xmlns="http://www.w3.org/2000/svg">
<path d="M145.453 180.055L33.6665 114.011C30.1078 112.011 27.0567 108.733 30.5253 106.582L142.709 41.944C144.391 40.9003 146.946 40.2163 148.661 41.2144L265.988 109.299C269.547 111.364 270.185 117.119 266.64 119.203L160.185 179.951C157.95 181.247 155.416 181.938 152.833 181.956C150.25 181.974 147.706 181.319 145.453 180.055V180.055Z" fill="#5B36A0"/>
<path d="M145.453 177.007L33.6665 110.961C30.1078 108.96 27.0567 105.682 30.5253 103.531L142.709 38.8939C144.391 37.8512 146.946 37.1673 148.661 38.1644L265.988 106.249C269.547 108.315 270.185 114.069 266.64 116.154L160.185 176.901C157.95 178.197 155.416 178.888 152.833 178.907C150.25 178.925 147.706 178.27 145.453 177.006V177.007Z" fill="#6862E6"/>
<path style="mix-blend-mode:multiply" opacity="0.25" d="M154.671 89.8677L132.613 102.451C132.613 102.451 166.592 123.18 173.54 126.1L186.244 107.853" fill="url(#paint0_linear)"/>
<path style="mix-blend-mode:multiply" opacity="0.25" d="M147.05 150.237L124.986 137.679L102.923 150.262C102.923 150.262 114.414 157.274 125.398 163.713C132.372 158.78 139.352 153.795 147.05 150.236V150.237Z" fill="url(#paint1_linear)"/>
<path style="mix-blend-mode:multiply" opacity="0.46" d="M99.5138 72.69L85.5189 80.6729C85.5189 80.6729 86.7045 87.9911 93.6538 90.9104L111.977 79.1803" fill="url(#paint2_linear)"/>
<path d="M106.364 80.6729C111.026 80.6729 114.805 78.0121 114.805 74.7298C114.805 71.4475 111.026 68.7867 106.364 68.7867C101.702 68.7867 97.9229 71.4475 97.9229 74.7298C97.9229 78.0121 101.702 80.6729 106.364 80.6729Z" fill="#68E1FD"/>
<path d="M106.358 73.8108C109.85 73.8108 112.681 72.6525 112.681 71.2238C112.681 69.795 109.85 68.6368 106.358 68.6368C102.866 68.6368 100.035 69.795 100.035 71.2238C100.035 72.6525 102.866 73.8108 106.358 73.8108Z" fill="#974C26"/>
<path d="M106.13 66.9101C106.13 65.7438 106.09 64.5764 105.999 63.4101C105.973 63.1061 105.944 62.8041 105.914 62.5042L105.849 61.9114C105.849 61.7361 105.758 61.2598 105.758 61.3054C105.718 61.0663 105.677 60.8292 105.634 60.5961C104.945 56.636 103.406 52.8722 101.124 49.5631C100.265 51.6064 99.8366 53.8048 99.8654 56.021C99.8654 56.6726 99.9171 57.3241 99.9698 57.9362V58.3212C100.227 59.8329 100.619 61.3184 101.143 62.7595C101.517 63.81 101.972 64.8295 102.505 65.8086C103.08 66.911 103.705 67.9872 104.376 69.034C104.898 69.8548 105.393 70.5844 105.896 71.2825C106.052 69.8294 106.123 68.3693 106.129 66.9101H106.13ZM102.812 53.7917C102.846 53.6415 102.846 53.4859 102.812 53.3357C102.972 53.5009 103.131 53.6701 103.288 53.8444C103.131 53.7997 102.968 53.7819 102.805 53.7917H102.812Z" fill="#999A1C"/>
<path d="M108.3 67.8089C108.952 66.826 109.526 65.8532 110.08 64.7922C110.222 64.5227 110.362 64.2532 110.497 63.9836L110.764 63.4425L111.018 62.8821L111.299 62.2306C112.861 58.5236 113.601 54.5221 113.469 50.5015C111.637 51.756 110.084 53.3753 108.906 55.258C108.568 55.8011 108.253 56.3579 107.961 56.9269L107.831 57.1671L107.798 57.2714C107.674 57.5653 107.55 57.8591 107.433 58.1581C107.001 59.2935 106.65 60.4584 106.384 61.6439C106.13 62.7305 105.962 63.8354 105.881 64.9483C105.766 66.1852 105.71 67.4269 105.712 68.6692C105.712 69.6399 105.712 70.5266 105.771 71.3798C106.637 70.2267 107.511 69.0411 108.3 67.8089V67.8089ZM112.602 54.9783C112.704 54.8638 112.78 54.728 112.824 54.5801C112.871 54.806 112.913 55.0239 112.947 55.2326C112.846 55.1313 112.729 55.0452 112.603 54.9783H112.602Z" fill="#999A1C"/>
<path d="M108.255 70.7151C108.91 70.3898 109.562 70.0382 110.21 69.6602L110.699 69.3603L111.018 69.1576L111.331 68.9367L111.696 68.6692C113.734 67.1739 115.424 65.2554 116.65 63.0453C115.259 63.1346 113.901 63.5095 112.661 64.1468C112.302 64.3292 111.956 64.5318 111.611 64.7396L111.462 64.8308L111.409 64.8764L110.927 65.2351C110.326 65.7083 109.759 66.2251 109.232 66.7794C108.745 67.284 108.298 67.8271 107.895 68.4017C107.443 69.0414 107.008 69.6936 106.592 70.3574C106.28 70.8782 105.999 71.3666 105.751 71.8429C106.592 71.4913 107.433 71.1255 108.254 70.7151H108.255ZM114.72 65.1763C114.812 65.1477 114.897 65.0989 114.968 65.0334C114.92 65.1719 114.868 65.3088 114.812 65.4438C114.795 65.3529 114.764 65.2651 114.721 65.1834V65.1763H114.72ZM106.13 66.9101C106.13 65.7438 106.09 64.5764 105.999 63.4101C105.973 63.1061 105.944 62.8041 105.914 62.5042L105.849 61.9114C105.849 61.7361 105.758 61.2598 105.758 61.3054C105.718 61.0663 105.677 60.8292 105.634 60.5961C104.945 56.636 103.406 52.8722 101.124 49.5631C100.265 51.6064 99.8366 53.8048 99.8654 56.021C99.8654 56.6726 99.9171 57.3241 99.9698 57.9362V58.3212C100.227 59.8329 100.619 61.3184 101.143 62.7595C101.517 63.81 101.972 64.8295 102.505 65.8086C103.08 66.911 103.705 67.9872 104.376 69.034C104.898 69.8548 105.393 70.5844 105.896 71.2825C106.052 69.8294 106.123 68.3693 106.129 66.9101H106.13ZM102.812 53.7917C102.846 53.6415 102.846 53.4859 102.812 53.3357C102.972 53.5009 103.131 53.6701 103.288 53.8444C103.131 53.7997 102.968 53.7819 102.805 53.7917H102.812Z" fill="#999A1C"/>
<path d="M108.3 67.8089C108.952 66.826 109.526 65.8532 110.08 64.7922C110.222 64.5227 110.362 64.2532 110.497 63.9836L110.764 63.4425L111.018 62.8821L111.299 62.2306C112.861 58.5236 113.601 54.5221 113.469 50.5015C111.637 51.756 110.084 53.3753 108.906 55.258C108.568 55.8011 108.253 56.3579 107.961 56.9269L107.831 57.1671L107.798 57.2714C107.674 57.5653 107.55 57.8591 107.433 58.1581C107.001 59.2935 106.65 60.4584 106.384 61.6439C106.13 62.7305 105.962 63.8354 105.881 64.9483C105.766 66.1852 105.71 67.4269 105.712 68.6692C105.712 69.6399 105.712 70.5266 105.771 71.3798C106.637 70.2267 107.511 69.0411 108.3 67.8089V67.8089ZM112.602 54.9783C112.704 54.8638 112.78 54.728 112.824 54.5801C112.871 54.806 112.913 55.0239 112.947 55.2326C112.846 55.1313 112.729 55.0452 112.603 54.9783H112.602Z" fill="#999A1C"/>
<path d="M108.255 70.7151C108.91 70.3898 109.562 70.0382 110.21 69.6602L110.699 69.3603L111.018 69.1576L111.331 68.9367L111.696 68.6692C113.734 67.1739 115.424 65.2554 116.65 63.0453C115.259 63.1346 113.901 63.5095 112.661 64.1468C112.302 64.3292 111.956 64.5318 111.611 64.7396L111.462 64.8308L111.409 64.8764L110.927 65.2351C110.326 65.7083 109.759 66.2251 109.232 66.7794C108.745 67.284 108.298 67.8271 107.895 68.4017C107.443 69.0414 107.008 69.6936 106.592 70.3574C106.28 70.8782 105.999 71.3666 105.751 71.8429C106.592 71.4913 107.433 71.1255 108.254 70.7151H108.255ZM114.72 65.1763C114.812 65.1477 114.897 65.0989 114.968 65.0334C114.92 65.1719 114.868 65.3088 114.812 65.4438C114.795 65.3529 114.764 65.2651 114.721 65.1834V65.1763H114.72Z" fill="#999A1C"/>
<path d="M163.431 84.9542L151.222 90.8192C150.762 91.0403 150.372 91.3825 150.091 91.809C149.811 92.2355 149.653 92.7302 149.633 93.24C149.613 93.7498 149.732 94.2555 149.977 94.7027C150.223 95.1499 150.586 95.5218 151.027 95.7784L179.961 112.656C180.586 113.022 181.329 113.131 182.033 112.963C182.738 112.794 183.35 112.359 183.742 111.75L190.774 100.816" fill="#A1482D"/>
<path d="M229.832 56.6655L132.483 0.584563C131.815 0.200656 131.058 -0.00093446 130.288 3.2565e-06C129.518 0.000940973 128.761 0.204374 128.094 0.589906C127.427 0.975437 126.873 1.52952 126.488 2.19659C126.103 2.86366 125.9 3.62027 125.899 4.39057V62.7322C125.899 64.0363 126.595 65.2411 127.723 65.8937L231.507 125.787C231.865 125.994 232.271 126.103 232.685 126.103C233.098 126.103 233.505 125.994 233.863 125.788C234.221 125.581 234.518 125.283 234.725 124.925C234.931 124.567 235.04 124.16 235.04 123.747V65.6455C235.038 63.8228 234.556 62.0328 233.641 60.4561C232.727 58.8794 231.412 57.5719 229.831 56.6655H229.832Z" fill="#F47B56"/>
<path d="M132.489 4.99653L226.899 59.2981C227.907 59.8783 228.744 60.7139 229.327 61.7208C229.909 62.7277 230.216 63.8702 230.216 65.0334V108.765C230.216 109.184 230.105 109.595 229.896 109.957C229.686 110.32 229.385 110.621 229.023 110.83C228.661 111.04 228.25 111.151 227.832 111.152C227.413 111.154 227.002 111.045 226.638 110.837L130.357 55.6299C129.997 55.4232 129.697 55.1252 129.489 54.7657C129.281 54.4063 129.171 53.9983 129.171 53.583V6.91879C129.171 6.53037 129.273 6.14873 129.467 5.81215C129.661 5.47557 129.94 5.19589 130.276 5.00116C130.612 4.80643 130.994 4.70349 131.382 4.70268C131.77 4.70187 132.152 4.80321 132.489 4.99653V4.99653Z" fill="white"/>
<path d="M172.213 87.4826C173.326 87.2682 174.03 86.0631 173.785 84.7909C173.54 83.5187 172.439 82.6612 171.326 82.8756C170.212 83.09 169.508 84.2952 169.753 85.5673C169.998 86.8395 171.099 87.697 172.213 87.4826Z" fill="#AB643C"/>
<path opacity="0.32" d="M157.865 64.3292L201.738 90.6825L223.412 78.0859L184.687 55.5518" fill="url(#paint3_linear)"/>
<path d="M212.083 59.0832L164.65 30.1693C164.396 30.0226 164.107 29.9465 163.814 29.949C163.521 29.9515 163.234 30.0324 162.982 30.1834C162.731 30.3344 162.524 30.5499 162.384 30.8076C162.244 31.0652 162.176 31.3557 162.186 31.6487V48.1222C162.184 48.4204 162.259 48.714 162.404 48.9745C162.549 49.235 162.76 49.4535 163.014 49.6087L210.44 77.9106C210.69 78.0521 210.972 78.1256 211.259 78.1238C211.545 78.1219 211.826 78.0448 212.074 77.9001C212.321 77.7554 212.527 77.5483 212.669 77.2994C212.811 77.0505 212.885 76.7685 212.884 76.4819L213.132 61.123C213.15 60.7211 213.063 60.3214 212.879 59.9635C212.695 59.6057 212.42 59.3022 212.083 59.0832V59.0832Z" fill="#E2AC00"/>
<path d="M200.735 67.5606C202.436 69.9399 205.427 70.6046 207.41 69.0532C209.391 67.5029 209.619 64.316 207.917 61.9438C206.216 59.5727 203.225 58.9008 201.242 60.4522C199.261 62.0026 199.033 65.1834 200.735 67.5616V67.5606Z" fill="white"/>
<path d="M196.081 56.1446L176.734 44.4996C176.569 44.4236 176.38 44.4119 176.206 44.4666C176.032 44.5214 175.885 44.6387 175.793 44.796C175.7 44.9533 175.669 45.1392 175.706 45.3179C175.743 45.4966 175.845 45.6553 175.992 45.7632L195.338 57.4082C195.504 57.4842 195.692 57.496 195.866 57.4412C196.04 57.3864 196.187 57.2691 196.28 57.1118C196.372 56.9545 196.403 56.7686 196.366 56.5899C196.329 56.4112 196.228 56.2526 196.081 56.1446V56.1446ZM195.285 60.8758L168.62 44.8249C168.456 44.7675 168.278 44.7695 168.116 44.8306C167.954 44.8916 167.819 45.0078 167.734 45.1588C167.649 45.3097 167.62 45.4857 167.652 45.6559C167.684 45.8262 167.775 45.9797 167.908 46.0895L194.542 62.1465C194.709 62.2237 194.897 62.2363 195.072 62.1818C195.247 62.1273 195.396 62.0095 195.488 61.8516C195.581 61.6936 195.612 61.5068 195.574 61.3275C195.537 61.1482 195.434 60.9893 195.285 60.8819V60.8758Z" fill="#F2F2F2"/>
<path d="M202.619 62.2762L155.212 33.3694C154.958 33.2224 154.669 33.1461 154.376 33.1485C154.082 33.1508 153.795 33.2317 153.543 33.3827C153.292 33.5337 153.085 33.7493 152.945 34.0071C152.805 34.265 152.737 34.5556 152.747 34.8488V51.3152C152.74 51.9231 153.051 52.4896 153.568 52.8078L200.995 81.1097C201.247 81.2543 201.533 81.3294 201.823 81.3271C202.113 81.3249 202.398 81.2454 202.648 81.0969C202.897 80.9483 203.103 80.7361 203.243 80.4819C203.383 80.2277 203.454 79.9408 203.446 79.6505L203.694 64.2896C203.705 63.8896 203.611 63.4936 203.423 63.1406C203.234 62.7876 202.957 62.4897 202.619 62.2762Z" fill="#F47B56"/>
<path d="M191.27 70.7546C192.972 73.1328 195.963 73.7976 197.945 72.2472C199.926 70.6968 200.154 67.5089 198.453 65.1368C196.751 62.7656 193.76 62.0938 191.778 63.6452C189.797 65.1955 189.569 68.3763 191.27 70.7546Z" fill="white"/>
<path d="M186.616 59.3376L167.256 47.6926C167.09 47.6153 166.901 47.6027 166.726 47.6572C166.551 47.7118 166.403 47.8295 166.31 47.9874C166.217 48.1454 166.187 48.3323 166.224 48.5116C166.262 48.6909 166.365 48.8497 166.513 48.9572L185.859 60.6022C186.025 60.6794 186.214 60.692 186.389 60.6375C186.564 60.583 186.712 60.4653 186.805 60.3073C186.898 60.1493 186.929 59.9625 186.891 59.7832C186.853 59.6039 186.75 59.445 186.602 59.3376H186.615H186.616ZM185.815 64.1012L159.154 48.0249C158.988 47.9477 158.799 47.9351 158.625 47.9896C158.45 48.0441 158.301 48.1619 158.209 48.3198C158.116 48.4778 158.085 48.6646 158.123 48.8439C158.16 49.0232 158.263 49.1821 158.412 49.2895L185.078 65.3394C185.244 65.4167 185.433 65.4293 185.608 65.3748C185.783 65.3202 185.931 65.2025 186.024 65.0445C186.117 64.8866 186.147 64.6997 186.11 64.5204C186.072 64.3411 185.969 64.1823 185.821 64.0748L185.815 64.1012Z" fill="#F2F2F2"/>
<path d="M190.722 64.2187L143.303 35.3109C143.049 35.1639 142.761 35.0876 142.467 35.09C142.174 35.0923 141.886 35.1732 141.635 35.3242C141.383 35.4752 141.177 35.6908 141.037 35.9487C140.897 36.2065 140.828 36.4971 140.839 36.7903V53.2577C140.837 53.5557 140.912 53.8491 141.057 54.1094C141.202 54.3697 141.412 54.5881 141.667 54.7432L189.093 83.0451C189.345 83.1897 189.63 83.2648 189.921 83.2625C190.211 83.2603 190.496 83.1808 190.745 83.0323C190.995 82.8838 191.2 82.6715 191.341 82.4173C191.481 82.1632 191.551 81.8762 191.544 81.5859L191.791 66.2251C191.813 65.4144 191.406 64.6534 190.722 64.2187V64.2187Z" fill="#68E1FD"/>
<path d="M190.722 64.2187L143.303 35.3109C143.049 35.1639 142.761 35.0876 142.467 35.09C142.174 35.0923 141.886 35.1732 141.635 35.3242C141.383 35.4752 141.177 35.6908 141.037 35.9487C140.897 36.2065 140.828 36.4971 140.839 36.7903V53.2577C140.837 53.5557 140.912 53.8491 141.057 54.1094C141.202 54.3697 141.412 54.5881 141.667 54.7432L189.093 83.0451C189.345 83.1897 189.63 83.2648 189.921 83.2625C190.211 83.2603 190.496 83.1808 190.745 83.0323C190.995 82.8838 191.2 82.6715 191.341 82.4173C191.481 82.1632 191.551 81.8762 191.544 81.5859L191.791 66.2251C191.813 65.4144 191.406 64.6534 190.722 64.2187V64.2187Z" fill="#68E1FD"/>
<path d="M179.368 72.6961C181.069 75.0754 184.061 75.7401 186.043 74.1887C188.024 72.6383 188.252 69.4515 186.55 67.0793C184.85 64.7081 181.858 64.0363 179.877 65.5867C177.895 67.1371 177.686 70.3189 179.368 72.6961V72.6961Z" fill="white"/>
<path d="M174.714 61.2791L155.362 49.6351C155.195 49.5569 155.006 49.5437 154.831 49.5979C154.655 49.6521 154.506 49.7699 154.413 49.9282C154.32 50.0866 154.289 50.2739 154.327 50.4536C154.365 50.6334 154.469 50.7924 154.618 50.8997L173.964 62.5447C174.13 62.6229 174.32 62.6361 174.495 62.5819C174.671 62.5277 174.819 62.4099 174.913 62.2515C175.006 62.0932 175.036 61.9059 174.998 61.7262C174.961 61.5464 174.857 61.3874 174.708 61.2801H174.714V61.2791ZM173.912 66.0173L147.246 49.9664C147.08 49.8892 146.891 49.8766 146.716 49.9311C146.541 49.9856 146.393 50.1034 146.3 50.2613C146.207 50.4193 146.177 50.6061 146.214 50.7854C146.252 50.9647 146.355 51.1236 146.503 51.2311L173.169 67.282C173.335 67.3601 173.524 67.3734 173.7 67.3192C173.875 67.2649 174.024 67.1471 174.117 66.9888C174.21 66.8305 174.241 66.6431 174.203 66.4634C174.165 66.2837 174.061 66.1246 173.912 66.0173Z" fill="#F2F2F2"/>
<path d="M128.486 62.6025C125.422 65.2391 123.105 68.6346 121.766 72.4489C119.407 78.9645 125.306 89.6134 125.306 89.6134L134.483 82.3479" fill="#FF8F6F"/>
<path d="M127.496 148.758L125.006 147.382L125.658 143.825C125.658 143.825 129.367 144.176 129.692 145.493" fill="#003B94"/>
<path d="M128.408 148.705C128.969 148.36 129.556 148.053 130.136 147.747C131.576 146.959 133.655 146.144 134.542 144.665C134.724 144.366 134.81 144.018 134.789 143.669C134.768 143.32 134.641 142.985 134.424 142.71C133.121 141.133 130.266 143.726 128.807 141.981C128.52 141.635 128.382 136.154 128.382 136.154L122.829 137.654C122.829 137.654 121.891 148.666 121.995 149.344C122.099 150.021 124.009 150.647 124.009 150.647C124.578 150.527 125.121 150.306 125.613 149.996C126.192 149.572 125.664 144.404 126.407 145.128C127.151 145.851 127.476 148.68 127.476 148.68C127.785 148.726 128.098 148.734 128.408 148.705V148.705Z" fill="#F47B56"/>
<path d="M138.101 154.082L135.611 152.726L136.263 149.168C136.263 149.168 139.971 149.52 140.298 150.836" fill="#003B94"/>
<path d="M139.04 154.029C139.601 153.684 140.187 153.377 140.767 153.071C142.208 152.283 144.287 151.468 145.174 149.989C145.355 149.69 145.441 149.342 145.42 148.993C145.399 148.644 145.272 148.309 145.056 148.034C143.752 146.457 140.898 149.05 139.437 147.304C139.151 146.959 139.014 141.478 139.014 141.478L133.461 142.978C133.461 142.978 132.515 154.029 132.62 154.681C132.723 155.333 134.633 155.985 134.633 155.985C135.202 155.864 135.745 155.643 136.237 155.333C136.817 154.909 136.289 149.741 137.032 150.465C137.776 151.189 138.101 154.017 138.101 154.017C138.412 154.059 138.728 154.063 139.04 154.029Z" fill="#F47B56"/>
<path d="M120.007 118.28L118.371 140.156C118.371 140.156 120.978 143.753 129.72 141.753L129.804 127.006L120.007 118.28ZM130.104 122.614C129.914 124.497 130.104 145.272 130.104 145.272C130.104 145.272 132.521 149.793 143.049 145.272L142.899 127.618" fill="#3E2928"/>
<path d="M119.192 125.506C119.909 126.003 120.157 123.454 120.906 123.891C123.633 125.474 126.528 126.75 129.536 127.696H129.601C129.673 127.661 129.751 127.641 129.831 127.637C129.91 127.633 129.99 127.645 130.065 127.672C130.14 127.7 130.208 127.742 130.267 127.796C130.325 127.851 130.371 127.917 130.404 127.99C132.262 128.544 134.153 128.979 136.068 129.293C138.524 129.684 140.558 127.865 143.08 127.742C143.08 118.085 143.127 90.5973 139.014 84.7323L126.844 80.6405C126.785 81.6437 120.938 88.4207 121.082 96.6843C121.244 105.997 120.032 114.78 119.824 117.693C119.791 118.189 119.218 124.979 119.192 125.506V125.506Z" fill="#3E2928"/>
<path d="M140.135 73.6284L139.014 84.7069C139.014 84.7069 129.934 85.0717 126.023 82.3733V72.9768" fill="#FF8F6F"/>
<path d="M151.678 66.3365L150.753 67.6001C151.246 66.5719 151.681 65.5167 152.056 64.4396C152.318 63.7039 151.137 63.4101 150.877 64.1468L150.74 64.5247C150.853 64.1336 150.96 63.7404 151.059 63.3452C151.081 63.267 151.087 63.1852 151.076 63.1047C151.066 63.0242 151.039 62.9465 150.998 62.8764C150.957 62.8063 150.903 62.745 150.838 62.6963C150.773 62.6476 150.699 62.6124 150.62 62.5928C150.541 62.5731 150.459 62.5695 150.379 62.582C150.299 62.5946 150.222 62.6231 150.153 62.6658C150.084 62.7086 150.024 62.7647 149.977 62.8309C149.93 62.8971 149.897 62.9721 149.88 63.0514C149.624 64.0743 149.317 65.0838 148.96 66.0761C149.16 65.1953 149.304 64.3028 149.391 63.404C149.469 62.6288 148.25 62.6612 148.178 63.404C148.077 64.4275 147.894 65.4408 147.631 66.4338C147.631 66.084 147.598 65.7349 147.533 65.3911C147.524 65.3047 147.497 65.2211 147.453 65.146C147.409 65.0708 147.35 65.0059 147.279 64.9554C147.246 64.8186 147.207 64.6833 147.162 64.5501C147.116 64.4135 147.023 64.2976 146.9 64.2226C146.777 64.1477 146.631 64.1185 146.488 64.1403C146.346 64.1621 146.216 64.2334 146.121 64.3417C146.025 64.45 145.971 64.5883 145.968 64.7325L145.89 69.2944C145.669 69.7676 145.382 70.2064 145.037 70.5985C145.623 71.0039 146.189 71.4396 146.731 71.9017C147.216 72.31 147.677 72.7458 148.113 73.2048C148.505 72.7184 148.88 72.2229 149.241 71.7193C149.286 71.6811 149.325 71.6372 149.358 71.5885C150.444 69.9822 151.565 68.4003 152.722 66.8442C153.204 66.3102 152.141 65.7174 151.678 66.3365V66.3365Z" fill="#FFB5A9"/>
<path d="M134.373 63.5276C134.373 63.5276 138.662 64.6808 140.402 67.438C141.492 69.3456 142.452 71.3244 143.277 73.3608L146.444 68.4412C146.444 68.4412 150.29 69.6207 151.815 71.5105C151.815 71.5105 147.253 81.4815 143.277 82.3348C139.301 83.188 135.077 76.4829 135.077 76.4829C135.077 76.4829 134.204 79.2847 134.373 76.2934" fill="#FF8F6F"/>
<path d="M137.098 74.1826C135.851 73.1687 134.91 71.8287 134.379 70.3118C133.864 68.5587 134.51 67.0205 135.108 65.3911C135.758 63.7763 136.137 62.0656 136.23 60.3276C136.283 58.6212 136.087 56.9127 135.97 55.2124C135.953 55.1397 135.953 55.0642 135.97 54.9915C135.396 53.0682 134.223 51.4398 131.908 51.2442C125.919 50.7355 125.579 57.3697 125.626 60.0672C125.67 62.7656 125.958 64.5896 123.97 65.7174C121.982 66.8442 120.547 69.8031 122.444 72.1945C124.341 74.5859 122.64 73.7135 121.375 75.8374C120.111 77.9623 120.437 80.6141 123.031 81.5727C125.625 82.5303 137.683 80.7317 138.792 79.617C139.185 79.1681 139.389 78.5838 139.359 77.9876C139.089 76.4882 138.285 75.1369 137.098 74.1826Z" fill="#007F68"/>
<path d="M142.99 19.4687C144.005 20.9296 144.592 22.6451 144.684 24.4218C144.798 25.2352 144.6 26.0615 144.13 26.7352C143.93 26.9549 143.663 27.1018 143.37 27.1526C143.077 27.2035 142.776 27.1554 142.514 27.0159C142.184 26.8843 141.886 26.6839 141.64 26.4281C141.419 26.2209 141.23 25.9818 141.08 25.7188L140.924 25.4128C140.881 25.4929 140.829 25.5668 140.767 25.6337C140.612 25.7553 140.427 25.8333 140.233 25.8617C139.907 25.9225 139.57 25.882 139.268 25.7452C138.547 25.4334 137.948 24.8956 137.56 24.213C137.092 23.4719 136.831 22.6194 136.804 21.7436C136.707 21.0343 136.929 20.3189 137.41 19.7879C137.616 19.5887 137.879 19.458 138.163 19.4138C138.447 19.3695 138.737 19.4138 138.995 19.5406C139.256 19.645 139.496 19.795 139.704 19.9845C139.882 20.1355 140.04 20.3087 140.174 20.4992L140.292 20.708V20.1274L141.595 20.636L141.725 24.2982C141.735 24.5606 141.816 24.815 141.96 25.0348C142.082 25.2466 142.27 25.4128 142.495 25.5111C143.125 25.7583 143.416 25.2152 143.368 23.8807C143.302 22.5598 142.866 21.2841 142.109 20.1993C141.429 19.0956 140.419 18.2341 139.222 17.7369C138.787 17.5163 138.297 17.4311 137.813 17.4925C137.33 17.554 136.876 17.7591 136.511 18.0815C136.121 18.4725 135.825 18.9461 135.643 19.4672C135.461 19.9883 135.399 20.5436 135.461 21.092C135.536 22.4892 135.986 23.8402 136.765 25.0024C137.385 26.1502 138.362 27.065 139.548 27.6087C139.961 27.7809 140.404 27.8671 140.852 27.862C141.143 27.8823 141.435 27.8285 141.699 27.7059L141.96 27.5631L142.749 29.0293L142.618 29.1205C142.495 29.1894 142.366 29.2512 142.233 29.3029C142.025 29.3931 141.806 29.4549 141.582 29.4853C141.294 29.5239 141.003 29.5239 140.715 29.4853C140.337 29.4401 139.967 29.3458 139.614 29.2046C138.61 28.7732 137.718 28.1181 137.006 27.2895C136.163 26.3571 135.48 25.2911 134.986 24.135C134.491 23.0313 134.208 21.8444 134.151 20.636C134.081 19.6202 134.288 18.6045 134.751 17.6974C135.135 16.9361 135.798 16.3524 136.602 16.068C137.444 15.7905 138.36 15.8368 139.17 16.1977C140.752 16.8661 142.087 18.0095 142.99 19.4697V19.4687ZM140.115 24.1026C140.329 23.829 140.425 23.4824 140.383 23.1379C140.372 22.7131 140.254 22.2979 140.037 21.9321C139.86 21.6128 139.583 21.3609 139.248 21.2157C139.12 21.1497 138.974 21.1244 138.831 21.1431C138.688 21.1617 138.554 21.2234 138.447 21.32C138.335 21.4479 138.251 21.5984 138.201 21.7615C138.151 21.9246 138.137 22.0964 138.16 22.2654C138.175 22.6951 138.302 23.1126 138.531 23.4774C138.719 23.8077 139.01 24.0692 139.359 24.2201C139.61 24.3488 139.915 24.3012 140.115 24.1026V24.1026ZM219.95 90.0309C220.967 91.4907 221.554 93.2063 221.645 94.983C221.758 95.7963 221.561 96.6225 221.091 97.2964C220.891 97.5154 220.623 97.6618 220.331 97.7126C220.038 97.7634 219.737 97.7157 219.474 97.577C219.145 97.4436 218.848 97.2435 218.601 96.9893C218.381 96.781 218.192 96.5421 218.04 96.28L217.884 95.974C217.84 96.053 217.787 96.1271 217.727 96.1949C217.573 96.3165 217.389 96.3965 217.193 96.4229C216.87 96.4877 216.534 96.4492 216.234 96.3124C215.513 95.9989 214.914 95.4589 214.527 94.7742C214.055 94.0324 213.792 93.1774 213.764 92.2987C213.664 91.5894 213.886 90.8719 214.371 90.343C214.576 90.1446 214.838 90.0144 215.12 89.9701C215.402 89.9259 215.691 89.9697 215.948 90.0957C216.209 90.1991 216.45 90.3491 216.658 90.5386C216.836 90.6926 216.993 90.8679 217.128 91.0604L217.252 91.2681V90.6885L218.555 91.1901L218.686 94.8522C218.697 95.1147 218.778 95.369 218.92 95.5889C219.042 95.8017 219.23 95.9679 219.455 96.0652C220.106 96.3124 220.374 95.7713 220.334 94.4358C220.268 93.1129 219.833 91.835 219.077 90.7473C218.397 89.6476 217.389 88.7886 216.196 88.291C215.762 88.0701 215.272 87.9843 214.788 88.0446C214.305 88.105 213.851 88.3087 213.484 88.6295C213.097 89.025 212.804 89.5029 212.626 90.0274C212.449 90.552 212.393 91.1098 212.461 91.6593C212.534 93.0566 212.984 94.4079 213.764 95.5697C214.409 96.6904 215.396 97.5745 216.581 98.0918C216.993 98.2641 217.436 98.3522 217.884 98.3522C218.175 98.3695 218.466 98.3157 218.731 98.1952L218.992 98.0523L219.781 99.5186L219.649 99.6098C219.527 99.6797 219.398 99.7405 219.265 99.7921C219.056 99.8784 218.837 99.9397 218.614 99.9745C218.324 100.013 218.03 100.013 217.74 99.9745C217.365 99.9269 216.997 99.8305 216.646 99.6878C215.643 99.2581 214.751 98.6052 214.039 97.7787C213.195 96.8439 212.511 95.7756 212.017 94.6171C211.522 93.5138 211.239 92.3272 211.183 91.1192C211.112 90.1053 211.32 89.0913 211.783 88.1867C212.168 87.4243 212.831 86.8386 213.634 86.5501C214.479 86.276 215.396 86.3229 216.208 86.6819C217.772 87.3848 219.079 88.5548 219.95 90.0309V90.0309ZM217.076 94.6638C217.291 94.3912 217.39 94.0446 217.349 93.6991C217.338 93.2736 217.217 92.8582 216.998 92.4932C216.824 92.1739 216.549 91.9217 216.215 91.7768C216.087 91.7099 215.942 91.6834 215.799 91.701C215.656 91.7185 215.522 91.7793 215.414 91.8751C215.299 92.0019 215.214 92.152 215.163 92.315C215.112 92.4781 215.098 92.6502 215.12 92.8195C215.135 93.2472 215.264 93.6636 215.492 94.0254C215.679 94.3577 215.97 94.6212 216.32 94.7752C216.441 94.8386 216.58 94.8619 216.716 94.8419C216.851 94.8219 216.977 94.7596 217.076 94.6638" fill="#F47B56"/>
<path style="mix-blend-mode:multiply" opacity="0.25" d="M90.0555 117.817L67.9916 105.266L45.9337 117.843C45.9337 117.843 58.208 125.506 69.1903 131.945C76.165 127.018 82.3634 121.382 90.0555 117.817V117.817Z" fill="url(#paint4_linear)"/>
<g filter="url(#filter0_d)">
<path d="M50.2079 82.5557V109.849L71.4713 122.026L95.4808 107.827V80.5341" fill="black"/>
</g>
<path d="M50.2079 82.5557V109.849L71.4713 122.026L95.4808 107.827V80.5341" fill="#FF9271"/>
<path d="M71.4713 94.7337V122.027L95.4808 107.828V80.5341L71.4713 94.7337Z" fill="#DF5C34"/>
<path d="M50.2079 82.5557L74.8791 68.4929L95.4798 80.5341L71.4713 94.7337L50.2079 82.5557Z" fill="#F47B56"/>
<path d="M72.0357 74.7572C74.5374 74.5884 77.0351 75.1386 79.2343 76.343C80.4938 77.0838 81.1819 77.8569 81.2792 78.6635C81.3764 79.4691 80.961 80.1703 79.9811 80.7611C79.5162 81.0483 79.0039 81.2507 78.4682 81.3589C78.0285 81.4633 77.5765 81.5099 77.1246 81.4957L76.6311 81.4572C76.6777 81.5677 76.7081 81.6832 76.7223 81.8018C76.7069 82.0822 76.6174 82.3536 76.4629 82.5881C76.2055 83.0238 75.8387 83.3846 75.3989 83.6338C74.3731 84.2434 73.1973 84.554 72.0043 84.5306C70.7697 84.5641 69.5498 84.2562 68.479 83.6409C67.4667 83.0431 66.9479 82.3408 66.9083 81.5353C66.9122 81.1087 67.036 80.6917 67.2655 80.3321C67.4951 79.9725 67.8211 79.6847 68.2064 79.5015C68.5763 79.2707 68.9791 79.0975 69.4011 78.9878C69.7373 78.8907 70.0833 78.8319 70.4326 78.8125H70.7903L70.1408 78.4224L71.9648 77.2854L76.1903 79.7741C76.5134 79.9481 76.8746 80.0392 77.2416 80.0392C77.6086 80.0392 77.9698 79.9481 78.2929 79.7741C79.1887 79.2158 78.8685 78.4811 77.3323 77.5712C75.6997 76.672 73.8438 76.2592 71.984 76.3815C70.0129 76.4057 68.0846 76.9602 66.4017 77.9866C64.8706 78.9442 64.1116 80.0862 64.1237 81.4116C64.1237 82.7117 64.9344 83.8679 66.5121 84.7971C68.2348 85.7598 70.1895 86.2259 72.1593 86.1428C74.1214 86.1751 76.0538 85.6622 77.7417 84.6613C78.3256 84.3149 78.8492 83.8758 79.2921 83.3612C79.589 83.0471 79.8109 82.6692 79.9416 82.2567L80.0328 81.8474L82.4404 81.9831C82.4445 82.0571 82.4445 82.1311 82.4404 82.2051C82.3969 82.4037 82.3381 82.5992 82.2651 82.7897C82.1608 83.0937 82.0219 83.3876 81.8497 83.6602C81.6024 84.029 81.3156 84.3695 80.9934 84.6735C80.5678 85.0839 80.1017 85.4456 79.5981 85.7527C78.149 86.6225 76.5439 87.2008 74.873 87.455C73.052 87.7731 71.1926 87.8059 69.3616 87.5523C67.6971 87.3564 66.0884 86.8307 64.6294 86.006C63.4519 85.3821 62.509 84.3924 61.9431 83.1859C61.7118 82.6596 61.5923 82.0909 61.5923 81.516C61.5923 80.9411 61.7118 80.3724 61.9431 79.8461C62.5039 78.6172 63.4374 77.5961 64.6111 76.9277C66.8474 75.5533 69.4113 74.8037 72.0357 74.7572V74.7572ZM74.3988 81.4765C74.3562 81.2544 74.2602 81.046 74.1189 80.8694C73.9777 80.6929 73.7954 80.5534 73.5881 80.4632C73.0765 80.1619 72.4937 80.0027 71.8999 80.0021C71.3485 79.9812 70.8028 80.1209 70.3293 80.4044C69.9402 80.5939 69.6899 80.985 69.6808 81.4177C69.7395 81.8686 70.0304 82.2557 70.4458 82.4381C70.9688 82.7369 71.5633 82.8876 72.1654 82.8738C72.7443 82.8884 73.3156 82.7399 73.8141 82.4452C74.192 82.2729 74.4322 81.8919 74.4251 81.4765" fill="#3E2928"/>
<defs>
<filter id="filter0_d" x="0.207886" y="55.5341" width="145.273" height="141.492" filterUnits="userSpaceOnUse" color-interpolation-filters="sRGB">
<feFlood flood-opacity="0" result="BackgroundImageFix"/>
<feColorMatrix in="SourceAlpha" type="matrix" values="0 0 0 0 0 0 0 0 0 0 0 0 0 0 0 0 0 0 127 0"/>
<feOffset dy="25"/>
<feGaussianBlur stdDeviation="25"/>
<feColorMatrix type="matrix" values="0 0 0 0 0.209139 0 0 0 0 0.0691446 0 0 0 0 0.478091 0 0 0 0.497159 0"/>
<feBlend mode="normal" in2="BackgroundImageFix" result="effect1_dropShadow"/>
<feBlend mode="normal" in="SourceGraphic" in2="effect1_dropShadow" result="shape"/>
</filter>
<linearGradient id="paint0_linear" x1="165.425" y1="103.222" x2="158.337" y2="112.826" gradientUnits="userSpaceOnUse">
<stop stop-color="#78B46A"/>
<stop offset="0.03" stop-color="#7F3500"/>
<stop offset="1" stop-color="white"/>
</linearGradient>
<linearGradient id="paint1_linear" x1="139.189" y1="145.12" x2="124.313" y2="161.428" gradientUnits="userSpaceOnUse">
<stop stop-color="#78B46A"/>
<stop offset="0.03" stop-color="#7F3500"/>
<stop offset="1" stop-color="white"/>
</linearGradient>
<linearGradient id="paint2_linear" x1="106.86" y1="76.6885" x2="95.7103" y2="88.913" gradientUnits="userSpaceOnUse">
<stop stop-color="#78B46A"/>
<stop offset="0.03" stop-color="#7F3500"/>
<stop offset="1" stop-color="white"/>
</linearGradient>
<linearGradient id="paint3_linear" x1="210.968" y1="76.8262" x2="204.282" y2="71.9514" gradientUnits="userSpaceOnUse">
<stop stop-color="white" stop-opacity="0"/>
<stop offset="0.99" stop-color="#DC841E"/>
</linearGradient>
<linearGradient id="paint4_linear" x1="82.1943" y1="112.63" x2="67.1017" y2="129.176" gradientUnits="userSpaceOnUse">
<stop stop-color="#78B46A"/>
<stop offset="0.03" stop-color="#7F3500"/>
<stop offset="1" stop-color="white"/>
</linearGradient>
</defs>
</svg>
